#!OML:ASF Y:\EmotionMaleHayes\Project 1\Capture day 1\Session 1\Male1.ASF
:FULLY-SPECIFIED
:DEGREES
691
root 45.9365 16.9547 -2.09123 1137.35 81.69 1143.97
lowerback 7.51951 2.56852 -11.5491
upperback 1.68595 2.56182 -2.37349
thorax -2.83722 1.40222 3.71537
lowerneck -23.5259 1.24584 2.3488
upperneck 19.7487 1.23021 -1.17452
head 10.2068 0.616681 -0.611464
rclavicle 2.15247e-015 -9.93923e-015
rhumerus -37.4136 2.47457 -88.2417
rradius 30.4275
rwrist 6.34435
rhand -5.62817 -31.9852
rfingers 7.12502
rthumb 20.1898 -60.956
lclavicle 2.15247e-015 -9.93923e-015
lhumerus -24.0037 -9.03574 87.1493
lradius 27.484
lwrist -9.55255
lhand -17.832 -27.3496
lfingers 7.12502
lthumb 8.43248 2.46209
rfemur 2.52046 1.44946 6.39854
rtibia 43.8871
rfoot -12.1455 4.32462
rtoes 3.32794
lfemur 7.70603 9.73114 -24.8743
ltibia 2.37418
lfoot -5.99865 3.48382
ltoes 3.80555
692
root 45.9689 16.9519 -2.09723 1134.21 81.8216 1140.87
lowerback 7.6222 2.59286 -11.4064
upperback 1.79348 2.60028 -2.2391
thorax -2.78726 1.41326 3.77252
lowerneck -23.3254 1.40353 2.58405
upperneck 19.2667 1.43867 -1.48538
head 10.0059 0.689278 -0.72879
rclavicle 1.11692e-014 -1.19271e-014
rhumerus -37.7122 1.92441 -87.9721
rradius 29.7651
rwrist 6.78966
rhand -5.6764 -32.0436
rfingers 7.12502
rthumb 20.1434 -61.0193
lclavicle 1.11692e-014 -1.19271e-014
lhumerus -23.455 -9.66326 87.1081
lradius 28.0089
lwrist -8.66745
lhand -17.8759 -27.2959
lfingers 7.12502
lthumb 8.39014 2.5175
rfemur 1.62666 1.76388 6.89826
rtibia 45.1356
rfoot -11.7931 4.16143
rtoes 3.4593
lfemur 8.01357 9.85286 -24.3375
ltibia 2.20009
lfoot -6.06575 3.5841
ltoes 3.63279
693
root 45.9973 16.9511 -2.11818 1134.58 81.6787 1141.24
lowerback 7.59488 2.48042 -11.6613
upperback 2.01648 2.46064 -2.21698
thorax -2.52441 1.32735 3.95923
lowerneck -23.3532 1.62238 2.565
upperneck 18.8733 1.71791 -1.40714
head 9.87537 0.822966 -0.65538
rclavicle 1.31198e-014 -2.78299e-015
rhumerus -37.7805 1.68168 -87.7246
rradius 29.1892
rwrist 7.11447
rhand -5.73734 -32.1852
rfingers 7.12502
rthumb 20.0848 -61.1671
lclavicle 1.31198e-014 -2.78299e-015
lhumerus -22.6956 -9.99969 87.0257
lradius 28.4856
lwrist -7.81689
lhand -18.0699 -27.4975
lfingers 7.12502
lthumb 8.20283 2.32325
rfemur 0.793454 1.51585 6.51585
rtibia 46.2233
rfoot -11.713 4.3596
rtoes 2.65651
lfemur 8.14541 9.91572 -24.6258
ltibia 2.14199
lfoot -6.14712 3.5675
ltoes 3.71949
694
root 46.0491 16.9527 -2.13863 1135.71 81.2996 1142.35
lowerback 7.48404 2.42279 -12.012
upperback 2.10809 2.38703 -2.35693
thorax -2.3593 1.28403 4.01972
lowerneck -23.635 1.74978 2.72708
upperneck 18.9375 1.87459 -1.59728
head 9.95535 0.882061 -0.724155
rclavicle -1.52567e-014 7.11649e-014
rhumerus -38.2119 0.972849 -87.3756
rradius 28.7941
rwrist 7.8228
rhand -5.52345 -32.2591
rfingers 7.12502
rthumb 20.2904 -61.2192
lclavicle -1.52567e-014 7.11649e-014
lhumerus -22.2378 -10.5436 86.8955
lradius 29.0433
lwrist -7.1135
lhand -18.1132 -27.6014
lfingers 7.12502
lthumb 8.16109 2.22103
rfemur 0.147785 1.31262 5.82502
rtibia 47.007
rfoot -11.7501 4.49266
rtoes 3.00825
lfemur 8.42265 10.0031 -25.2644
ltibia 1.91284
lfoot -6.27678 3.44232
ltoes 4.0539
695
root 46.0722 16.9483 -2.14675 1136.13 81.091 1142.78
lowerback 7.80958 2.38595 -12.3449
upperback 2.08504 2.26279 -2.397
thorax -2.55444 1.23634 4.16218
lowerneck -23.6424 1.7933 2.67016
upperneck 18.8119 1.94198 -1.55991
head 9.91224 0.912593 -0.691341
rclavicle -1.0312e-015 -1.82882e-014
rhumerus -38.6665 0.342498 -87.0165
rradius 28.335
rwrist 8.50202
rhand -5.27642 -32.2243
rfingers 7.12502
rthumb 20.5278 -61.159
lclavicle -1.0312e-015 -1.82882e-014
lhumerus -21.8428 -11.0474 86.742
lradius 29.5156
lwrist -6.63178
lhand -17.9275 -27.5238
lfingers 7.12502
lthumb 8.34034 2.29152
rfemur -0.777733 1.35873 5.62047
rtibia 48.0631
rfoot -11.9961 4.21906
rtoes 4.15338
lfemur 8.50091 9.97513 -25.5332
ltibia 1.91972
lfoot -6.36224 3.41619
ltoes 3.92585
696
root 46.1196 16.9503 -2.16403 1141.23 79.5652 1147.93
lowerback 7.88258 2.38294 -14.1505
upperback 2.0309 2.11301 -2.86835
thorax -2.66037 1.19065 4.66562
lowerneck -23.5994 1.80732 2.53099
upperneck 18.8924 1.95572 -1.32136
head 9.92958 0.93878 -0.582259
rclavicle 2.84511e-015 5.04913e-014
rhumerus -39.3287 -0.252818 -86.6928
rradius 28.1188
rwrist 8.69412
rhand -5.09662 -32.6144
rfingers 7.12502
rthumb 20.7006 -61.5304
lclavicle 2.84511e-015 5.04913e-014
lhumerus -21.5867 -11.5776 86.6084
lradius 29.9427
lwrist -6.24527
lhand -17.8482 -27.4294
lfingers 7.12502
lthumb 8.41683 2.38285
rfemur -1.60967 1.05606 3.2725
rtibia 48.931
rfoot -12.2643 4.42163
rtoes 3.67905
lfemur 8.67024 10.3197 -27.7261
ltibia 1.74542
lfoot -6.29562 3.20924
ltoes 3.7428
